<mxfile host="app.diagrams.net" modified="2021-11-22T11:10:36.450Z" agent="5.0 (Macintosh; Intel Mac OS X 10_15_7) AppleWebKit/537.36 (KHTML, like Gecko) Chrome/95.0.4638.69 Safari/537.36" etag="CDJWpkY0-dsNyhIo8Rnw" version="15.8.3" type="github">
  <diagram id="R2lEEEUBdFMjLlhIrx00" name="Page-1">
    <mxGraphModel dx="1426" dy="794" grid="1" gridSize="10" guides="1" tooltips="1" connect="1" arrows="1" fold="1" page="1" pageScale="1" pageWidth="850" pageHeight="1100" math="0" shadow="0" extFonts="Permanent Marker^https://fonts.googleapis.com/css?family=Permanent+Marker">
      <root>
        <mxCell id="0" />
        <mxCell id="1" parent="0" />
        <mxCell id="C-vyLk0tnHw3VtMMgP7b-1" value="" style="edgeStyle=entityRelationEdgeStyle;endArrow=ERzeroToMany;startArrow=ERone;endFill=1;startFill=0;exitX=1;exitY=0.5;exitDx=0;exitDy=0;entryX=0;entryY=0.5;entryDx=0;entryDy=0;" parent="1" source="o_D7zPI8jEWWfxkzGFf5-40" target="o_D7zPI8jEWWfxkzGFf5-41" edge="1">
          <mxGeometry width="100" height="100" relative="1" as="geometry">
            <mxPoint x="330" y="207.5" as="sourcePoint" />
            <mxPoint x="450" y="212.5" as="targetPoint" />
          </mxGeometry>
        </mxCell>
        <mxCell id="o_D7zPI8jEWWfxkzGFf5-40" value="Users" style="rounded=1;arcSize=10;whiteSpace=wrap;html=1;align=center;" vertex="1" parent="1">
          <mxGeometry x="110" y="190" width="140" height="110" as="geometry" />
        </mxCell>
        <mxCell id="o_D7zPI8jEWWfxkzGFf5-41" value="Records" style="rounded=1;arcSize=10;whiteSpace=wrap;html=1;align=center;" vertex="1" parent="1">
          <mxGeometry x="560" y="190" width="150" height="110" as="geometry" />
        </mxCell>
        <mxCell id="o_D7zPI8jEWWfxkzGFf5-45" value="" style="edgeStyle=orthogonalEdgeStyle;rounded=0;orthogonalLoop=1;jettySize=auto;html=1;" edge="1" parent="1" source="o_D7zPI8jEWWfxkzGFf5-44" target="o_D7zPI8jEWWfxkzGFf5-40">
          <mxGeometry relative="1" as="geometry" />
        </mxCell>
        <mxCell id="o_D7zPI8jEWWfxkzGFf5-44" value="user_id" style="ellipse;whiteSpace=wrap;html=1;align=center;fontStyle=4;" vertex="1" parent="1">
          <mxGeometry x="50" y="100" width="100" height="40" as="geometry" />
        </mxCell>
        <mxCell id="o_D7zPI8jEWWfxkzGFf5-47" value="" style="edgeStyle=orthogonalEdgeStyle;rounded=0;orthogonalLoop=1;jettySize=auto;html=1;" edge="1" parent="1" source="o_D7zPI8jEWWfxkzGFf5-46" target="o_D7zPI8jEWWfxkzGFf5-40">
          <mxGeometry relative="1" as="geometry" />
        </mxCell>
        <mxCell id="o_D7zPI8jEWWfxkzGFf5-46" value="email" style="ellipse;whiteSpace=wrap;html=1;align=center;" vertex="1" parent="1">
          <mxGeometry x="130" y="380" width="100" height="40" as="geometry" />
        </mxCell>
        <mxCell id="o_D7zPI8jEWWfxkzGFf5-53" value="" style="edgeStyle=orthogonalEdgeStyle;rounded=0;orthogonalLoop=1;jettySize=auto;html=1;" edge="1" parent="1" source="o_D7zPI8jEWWfxkzGFf5-48" target="o_D7zPI8jEWWfxkzGFf5-41">
          <mxGeometry relative="1" as="geometry" />
        </mxCell>
        <mxCell id="o_D7zPI8jEWWfxkzGFf5-48" value="name" style="ellipse;whiteSpace=wrap;html=1;align=center;" vertex="1" parent="1">
          <mxGeometry x="585" y="370" width="100" height="40" as="geometry" />
        </mxCell>
        <mxCell id="o_D7zPI8jEWWfxkzGFf5-50" value="" style="edgeStyle=orthogonalEdgeStyle;rounded=0;orthogonalLoop=1;jettySize=auto;html=1;" edge="1" parent="1" source="o_D7zPI8jEWWfxkzGFf5-49" target="o_D7zPI8jEWWfxkzGFf5-40">
          <mxGeometry relative="1" as="geometry" />
        </mxCell>
        <mxCell id="o_D7zPI8jEWWfxkzGFf5-49" value="record_id" style="ellipse;whiteSpace=wrap;html=1;align=center;fontStyle=4;" vertex="1" parent="1">
          <mxGeometry x="210" y="100" width="100" height="40" as="geometry" />
        </mxCell>
        <mxCell id="o_D7zPI8jEWWfxkzGFf5-52" value="" style="edgeStyle=orthogonalEdgeStyle;rounded=0;orthogonalLoop=1;jettySize=auto;html=1;" edge="1" parent="1" source="o_D7zPI8jEWWfxkzGFf5-51" target="o_D7zPI8jEWWfxkzGFf5-41">
          <mxGeometry relative="1" as="geometry" />
        </mxCell>
        <mxCell id="o_D7zPI8jEWWfxkzGFf5-51" value="record_id" style="ellipse;whiteSpace=wrap;html=1;align=center;fontStyle=4;" vertex="1" parent="1">
          <mxGeometry x="510" y="100" width="100" height="40" as="geometry" />
        </mxCell>
        <mxCell id="o_D7zPI8jEWWfxkzGFf5-55" value="" style="edgeStyle=orthogonalEdgeStyle;rounded=0;orthogonalLoop=1;jettySize=auto;html=1;" edge="1" parent="1" source="o_D7zPI8jEWWfxkzGFf5-54" target="o_D7zPI8jEWWfxkzGFf5-41">
          <mxGeometry relative="1" as="geometry" />
        </mxCell>
        <mxCell id="o_D7zPI8jEWWfxkzGFf5-54" value="Attribute" style="ellipse;whiteSpace=wrap;html=1;align=center;" vertex="1" parent="1">
          <mxGeometry x="670" y="100" width="100" height="40" as="geometry" />
        </mxCell>
      </root>
    </mxGraphModel>
  </diagram>
</mxfile>
